<svg width="34" height="34" viewBox="0 0 34 34" fill="none" xmlns="http://www.w3.org/2000/svg">
<path d="M26.3887 31.598C24.1387 31.598 22.0137 30.4314 20.8192 28.5147C20.1804 27.5286 19.8193 26.348 19.7915 25.1396C19.7498 23.1118 20.6109 21.223 22.1526 19.9452C23.3054 18.9869 24.7498 18.4452 26.2359 18.4035C28.0415 18.3897 29.6665 19.0147 30.9443 20.2369C32.222 21.4591 32.9442 23.098 32.972 24.8619C32.9998 26.0702 32.6943 27.2508 32.0832 28.2924C31.7498 28.8758 31.3193 29.4174 30.8054 29.8758C29.6665 30.9452 28.1387 31.5702 26.5137 31.598C26.4859 31.598 26.4443 31.598 26.3887 31.598ZM26.3887 20.4869C26.3609 20.4869 26.3193 20.4869 26.2915 20.4869C25.2637 20.5147 24.2915 20.8758 23.4859 21.5424C22.4304 22.4174 21.847 23.7091 21.8748 25.098C21.8887 25.9174 22.1387 26.723 22.5693 27.4035C23.4165 28.7646 24.8887 29.598 26.472 29.5147C27.5693 29.4869 28.6109 29.0702 29.4026 28.3341C29.7637 28.0147 30.0554 27.6536 30.2776 27.2647C30.6942 26.5424 30.9026 25.7369 30.8887 24.9174C30.8609 23.7091 30.3748 22.5841 29.4998 21.7507C28.6665 20.9313 27.5554 20.4869 26.3887 20.4869Z" fill="#015BFF"/>
<path d="M25.6246 27.4307C25.3607 27.4307 25.1107 27.3334 24.9024 27.139L23.4996 25.8057C23.0829 25.4029 23.069 24.7501 23.4718 24.3335C23.8746 23.9168 24.5274 23.9029 24.944 24.3057L25.6246 24.9584L27.8051 22.8473C28.2218 22.4446 28.8746 22.4584 29.2774 22.8751C29.6801 23.2917 29.6663 23.9446 29.2496 24.3474L26.3468 27.1529C26.1385 27.3334 25.8746 27.4307 25.6246 27.4307Z" fill="#015BFF"/>
<path d="M16.6668 18.4723C16.4862 18.4723 16.3057 18.4307 16.139 18.3334L3.87514 11.2362C3.37514 10.9446 3.20844 10.3056 3.50011 9.80565C3.79178 9.30565 4.43069 9.13895 4.9168 9.43062L16.6529 16.2223L28.3196 9.47233C28.8196 9.18066 29.4585 9.36124 29.7362 9.84736C30.0279 10.3474 29.8474 10.9862 29.3613 11.2779L17.1807 18.3334C17.0279 18.4168 16.8473 18.4723 16.6668 18.4723Z" fill="#015BFF"/>
<path d="M16.6665 31.0556C16.0971 31.0556 15.6248 30.5833 15.6248 30.0139V17.4167C15.6248 16.8472 16.0971 16.375 16.6665 16.375C17.236 16.375 17.7082 16.8472 17.7082 17.4167V30.0139C17.7082 30.5833 17.236 31.0556 16.6665 31.0556Z" fill="#015BFF"/>
<path d="M16.6669 31.5973C15.4447 31.5973 14.2225 31.3334 13.278 30.7918L5.86138 26.6807C3.84749 25.5696 2.26416 22.889 2.26416 20.5835V12.7223C2.26416 10.4167 3.84749 7.75014 5.86138 6.62514L13.278 2.514C15.1669 1.44455 18.1391 1.44455 20.0419 2.514L27.4586 6.62514C29.4725 7.73625 31.0558 10.4167 31.0558 12.7223V20.5835C31.0558 20.7223 31.0558 20.8334 31.028 20.9723C30.9586 21.3334 30.6947 21.639 30.3475 21.7501C30.0003 21.8751 29.6114 21.7918 29.3197 21.5557C27.7225 20.1668 25.2503 20.1112 23.5697 21.4585C22.5003 22.3057 21.8753 23.5973 21.8753 24.9723C21.8753 25.7918 22.0975 26.5974 22.528 27.2918C22.6392 27.4863 22.7503 27.639 22.8753 27.7918C23.0836 28.0279 23.167 28.3473 23.1114 28.6529C23.0558 28.9585 22.8614 29.2224 22.5836 29.3751L20.0419 30.7779C19.0975 31.3334 17.8892 31.5973 16.6669 31.5973ZM16.6669 3.81956C15.8058 3.81956 14.9308 4.00012 14.3058 4.34734L6.88914 8.45848C5.54192 9.19459 4.37526 11.1945 4.37526 12.7223V20.5835C4.37526 22.1112 5.55581 24.1112 6.88914 24.8474L14.3058 28.9584C15.5697 29.6667 17.778 29.6667 19.0419 28.9584L20.5975 28.0973C20.0836 27.1668 19.8058 26.0834 19.8058 24.9723C19.8058 22.9445 20.7086 21.0696 22.2781 19.8196C24.1669 18.3057 26.8614 17.9862 28.9864 18.889V12.6946C28.9864 11.1668 27.8058 9.16679 26.4725 8.43068L19.0558 4.31954C18.403 4.00009 17.528 3.81956 16.6669 3.81956Z" fill="#015BFF"/>
</svg>
