<svg width="180" height="180" viewBox="0 0 180 180" fill="none" xmlns="http://www.w3.org/2000/svg">
<path d="M148.874 140.625H130.274C127.199 140.625 124.649 138.075 124.649 135C124.649 131.925 127.199 129.375 130.274 129.375H148.874C156.524 129.375 159.374 126.525 159.374 118.875V31.1252C159.374 23.4752 156.524 20.625 148.874 20.625H116.624C108.974 20.625 106.124 23.4752 106.124 31.1252V45C106.124 48.075 103.574 50.625 100.499 50.625C97.424 50.625 94.874 48.075 94.874 45V31.1252C94.874 17.3252 102.824 9.375 116.624 9.375H148.874C162.674 9.375 170.624 17.3252 170.624 31.1252V118.875C170.624 132.675 162.674 140.625 148.874 140.625Z" fill="url(#paint0_linear_14_3369)"/>
<path d="M50.2501 140.625H31.1252C17.3252 140.625 9.375 132.675 9.375 118.875V31.1252C9.375 17.3252 17.3252 9.375 31.1252 9.375H63.3751C77.1751 9.375 85.1248 17.3252 85.1248 31.1252V45C85.1248 48.075 82.5748 50.625 79.4998 50.625C76.4248 50.625 73.8748 48.075 73.8748 45V31.1252C73.8748 23.4752 71.0251 20.625 63.3751 20.625H31.1252C23.4752 20.625 20.625 23.4752 20.625 31.1252V118.875C20.625 126.525 23.4752 129.375 31.1252 129.375H50.2501C53.3251 129.375 55.8751 131.925 55.8751 135C55.8751 138.075 53.3251 140.625 50.2501 140.625Z" fill="url(#paint1_linear_14_3369)"/>
<path d="M112.202 170.625H68.4013C53.3263 170.625 44.6265 161.925 44.6265 146.85V63.1499C44.6265 48.0749 53.3263 39.375 68.4013 39.375H112.202C127.277 39.375 135.901 48.0749 135.901 63.1499V146.85C135.901 161.925 127.277 170.625 112.202 170.625ZM68.4013 50.625C59.4013 50.625 55.8765 54.1499 55.8765 63.1499V146.85C55.8765 155.85 59.4013 159.375 68.4013 159.375H112.202C121.127 159.375 124.651 155.85 124.651 146.85V63.1499C124.651 54.1499 121.127 50.625 112.202 50.625H68.4013Z" fill="url(#paint2_linear_14_3369)"/>
<path d="M105 88.125H75C71.925 88.125 69.375 85.575 69.375 82.5C69.375 79.425 71.925 76.875 75 76.875H105C108.075 76.875 110.625 79.425 110.625 82.5C110.625 85.575 108.075 88.125 105 88.125Z" fill="url(#paint3_linear_14_3369)"/>
<path d="M105 110.625H75C71.925 110.625 69.375 108.075 69.375 105C69.375 101.925 71.925 99.375 75 99.375H105C108.075 99.375 110.625 101.925 110.625 105C110.625 108.075 108.075 110.625 105 110.625Z" fill="url(#paint4_linear_14_3369)"/>
<path d="M90 170.625C86.925 170.625 84.375 168.075 84.375 165V142.5C84.375 139.425 86.925 136.875 90 136.875C93.075 136.875 95.625 139.425 95.625 142.5V165C95.625 168.075 93.075 170.625 90 170.625Z" fill="url(#paint5_linear_14_3369)"/>
<defs>
<linearGradient id="paint0_linear_14_3369" x1="132.749" y1="9.375" x2="132.749" y2="140.625" gradientUnits="userSpaceOnUse">
<stop stop-color="#CCDEFF"/>
<stop offset="1" stop-color="#F8F8F8"/>
</linearGradient>
<linearGradient id="paint1_linear_14_3369" x1="47.2499" y1="9.375" x2="47.2499" y2="140.625" gradientUnits="userSpaceOnUse">
<stop stop-color="#CCDEFF"/>
<stop offset="1" stop-color="#F8F8F8"/>
</linearGradient>
<linearGradient id="paint2_linear_14_3369" x1="90.2639" y1="39.375" x2="90.2639" y2="170.625" gradientUnits="userSpaceOnUse">
<stop stop-color="#CCDEFF"/>
<stop offset="1" stop-color="#F8F8F8"/>
</linearGradient>
<linearGradient id="paint3_linear_14_3369" x1="90" y1="76.875" x2="90" y2="88.125" gradientUnits="userSpaceOnUse">
<stop stop-color="#CCDEFF"/>
<stop offset="1" stop-color="#F8F8F8"/>
</linearGradient>
<linearGradient id="paint4_linear_14_3369" x1="90" y1="99.375" x2="90" y2="110.625" gradientUnits="userSpaceOnUse">
<stop stop-color="#CCDEFF"/>
<stop offset="1" stop-color="#F8F8F8"/>
</linearGradient>
<linearGradient id="paint5_linear_14_3369" x1="90" y1="136.875" x2="90" y2="170.625" gradientUnits="userSpaceOnUse">
<stop stop-color="#CCDEFF"/>
<stop offset="1" stop-color="#F8F8F8"/>
</linearGradient>
</defs>
</svg>
