<svg width="34" height="34" viewBox="0 0 34 34" fill="none" xmlns="http://www.w3.org/2000/svg">
<path d="M17.362 31.5973H5.66753C3.48698 31.5973 1.69531 29.8473 1.69531 27.6806V7.06951C1.69531 4.94451 2.48698 3.29174 3.93142 2.38896C5.38976 1.47229 7.27865 1.50007 9.23698 2.47229L15.4036 5.50007C17.0842 6.3334 18.4036 8.43063 18.4036 10.2917V30.5556C18.4036 31.1251 17.9314 31.5973 17.362 31.5973ZM6.3342 3.81951C5.84809 3.81951 5.40365 3.93063 5.02865 4.16674C4.22309 4.66674 3.77865 5.7084 3.77865 7.06951V27.6806C3.77865 28.6945 4.62587 29.514 5.66753 29.514H16.3203V10.2917C16.3203 9.22229 15.4592 7.84729 14.4731 7.37507L8.30642 4.34729C7.59809 4.00007 6.93142 3.81951 6.3342 3.81951Z" fill="#015BFF"/>
<path d="M26.1244 31.5976H17.3605C16.7911 31.5976 16.3188 31.1254 16.3188 30.556V14.4726C16.3188 14.1532 16.4577 13.8615 16.7077 13.6671C16.9577 13.4726 17.2633 13.3893 17.5827 13.4588L18.2355 13.5976L27.3188 15.6254C30.0827 16.2365 31.4716 17.8615 31.555 20.6254C31.5688 20.6254 31.5688 20.7643 31.5688 20.9171V26.1671C31.555 29.7226 29.68 31.5976 26.1244 31.5976ZM18.4022 29.5143H26.1244C28.5688 29.5143 29.4716 28.6115 29.4716 26.1671V20.806C29.4022 18.9032 28.68 18.056 26.8605 17.6532L18.4022 15.7643V29.5143Z" fill="#015BFF"/>
<path d="M12.4586 13.5413H7.63914C7.0697 13.5413 6.59747 13.0691 6.59747 12.4997C6.59747 11.9302 7.0697 11.458 7.63914 11.458H12.4586C13.028 11.458 13.5003 11.9302 13.5003 12.4997C13.5003 13.0691 13.0419 13.5413 12.4586 13.5413Z" fill="#015BFF"/>
<path d="M12.4586 19.097H7.63914C7.0697 19.097 6.59747 18.6248 6.59747 18.0553C6.59747 17.4859 7.0697 17.0137 7.63914 17.0137H12.4586C13.028 17.0137 13.5003 17.4859 13.5003 18.0553C13.5003 18.6248 13.0419 19.097 12.4586 19.097Z" fill="#015BFF"/>
<path d="M21.1391 24.6531C18.8475 24.6531 16.9725 22.7781 16.9725 20.4864V14.6114C16.9725 14.292 17.1114 14.0003 17.3614 13.792C17.6114 13.5837 17.9308 13.5142 18.2364 13.5837L24.4864 14.9864C24.9586 15.0975 25.3058 15.5142 25.3058 16.0003V20.4725C25.3058 22.7781 23.4447 24.6531 21.1391 24.6531ZM19.0558 15.917V20.4864C19.0558 21.6392 19.9864 22.5698 21.1391 22.5698C22.2919 22.5698 23.2225 21.6392 23.2225 20.4864V16.8475L19.0558 15.917Z" fill="#015BFF"/>
<path d="M27.3893 24.6526C25.0977 24.6526 23.2227 22.7776 23.2227 20.4859V16.0137C23.2227 15.6942 23.3615 15.4026 23.6115 15.2081C23.8615 15.0137 24.181 14.9303 24.4865 14.9998L27.306 15.6248C30.0699 16.2359 31.4588 17.8609 31.5421 20.6248C31.5421 20.6526 31.5421 20.6803 31.5421 20.7081C31.431 22.9164 29.6115 24.6526 27.3893 24.6526ZM25.306 17.3053V20.4859C25.306 21.6387 26.2365 22.5692 27.3893 22.5692C28.4865 22.5692 29.3893 21.722 29.4588 20.6387C29.3893 18.8887 28.6671 18.0553 26.8615 17.6526L25.306 17.3053Z" fill="#015BFF"/>
</svg>
