<svg width="20" height="20" viewBox="0 0 20 20" fill="none" xmlns="http://www.w3.org/2000/svg">
<path d="M10.0003 18.9584C9.47533 18.9584 8.98366 18.7584 8.61699 18.3834L7.35033 17.1167C7.25033 17.0167 6.98366 16.9084 6.85033 16.9084H5.05032C3.96699 16.9084 3.09198 16.0333 3.09198 14.95V13.1501C3.09198 13.0167 2.98365 12.7501 2.88365 12.6501L1.61699 11.3834C1.25033 11.0167 1.04199 10.525 1.04199 10C1.04199 9.47503 1.24199 8.98334 1.61699 8.61667L2.88365 7.34999C2.98365 7.24999 3.09198 6.98334 3.09198 6.85001V5.05008C3.09198 3.96675 3.96699 3.09167 5.05032 3.09167H6.85033C6.98366 3.09167 7.25033 2.98333 7.35033 2.88333L8.61699 1.61665C9.35032 0.883317 10.6503 0.883317 11.3837 1.61665L12.6503 2.88333C12.7503 2.98333 13.017 3.09167 13.1503 3.09167H14.9503C16.0337 3.09167 16.9087 3.96675 16.9087 5.05008V6.85001C16.9087 6.98334 17.017 7.24999 17.117 7.34999L18.3837 8.61667C18.7503 8.98334 18.9587 9.47503 18.9587 10C18.9587 10.525 18.7587 11.0167 18.3837 11.3834L17.117 12.6501C17.017 12.7501 16.9087 13.0167 16.9087 13.1501V14.95C16.9087 16.0333 16.0337 16.9084 14.9503 16.9084H13.1503C13.017 16.9084 12.7503 17.0167 12.6503 17.1167L11.3837 18.3834C11.017 18.7584 10.5253 18.9584 10.0003 18.9584ZM3.76698 11.7667C4.10032 12.1 4.34198 12.6834 4.34198 13.1501V14.95C4.34198 15.3417 4.65866 15.6584 5.05032 15.6584H6.85033C7.31699 15.6584 7.90033 15.9 8.23366 16.2333L9.50032 17.5C9.76699 17.7667 10.2337 17.7667 10.5003 17.5L11.767 16.2333C12.1003 15.9 12.6837 15.6584 13.1503 15.6584H14.9503C15.342 15.6584 15.6587 15.3417 15.6587 14.95V13.1501C15.6587 12.6834 15.9003 12.1 16.2337 11.7667L17.5003 10.5C17.6337 10.3667 17.7087 10.1917 17.7087 10C17.7087 9.80837 17.6337 9.63339 17.5003 9.50005L16.2337 8.23337C15.9003 7.90004 15.6587 7.31668 15.6587 6.85001V5.05008C15.6587 4.65841 15.342 4.34167 14.9503 4.34167H13.1503C12.6837 4.34167 12.1003 4.10005 11.767 3.76672L10.5003 2.50003C10.2337 2.23337 9.76699 2.23337 9.50032 2.50003L8.23366 3.76672C7.90033 4.10005 7.31699 4.34167 6.85033 4.34167H5.05032C4.65866 4.34167 4.34198 4.65841 4.34198 5.05008V6.85001C4.34198 7.31668 4.10032 7.90004 3.76698 8.23337L2.50033 9.50005C2.36699 9.63339 2.29199 9.80837 2.29199 10C2.29199 10.1917 2.36699 10.3667 2.50033 10.5L3.76698 11.7667Z" fill="black"/>
<path d="M12.4999 13.3334C12.0332 13.3334 11.6582 12.9584 11.6582 12.5001C11.6582 12.0417 12.0332 11.6667 12.4915 11.6667C12.9499 11.6667 13.3249 12.0417 13.3249 12.5001C13.3249 12.9584 12.9582 13.3334 12.4999 13.3334Z" fill="black"/>
<path d="M7.50867 8.33341C7.042 8.33341 6.66699 7.95841 6.66699 7.50008C6.66699 7.04175 7.04199 6.66675 7.50033 6.66675C7.95866 6.66675 8.33366 7.04175 8.33366 7.50008C8.33366 7.95841 7.967 8.33341 7.50867 8.33341Z" fill="black"/>
<path d="M7.49987 13.1249C7.34154 13.1249 7.1832 13.0666 7.0582 12.9416C6.81654 12.6999 6.81654 12.2999 7.0582 12.0582L12.0582 7.0582C12.2999 6.81654 12.6999 6.81654 12.9415 7.0582C13.1832 7.29987 13.1832 7.69992 12.9415 7.94159L7.94153 12.9416C7.81653 13.0666 7.6582 13.1249 7.49987 13.1249Z" fill="black"/>
</svg>
