<svg width="20" height="20" viewBox="0 0 20 20" fill="none" xmlns="http://www.w3.org/2000/svg">
<path d="M14.783 18.9583H5.21634C3.14134 18.9583 1.45801 17.2749 1.45801 15.1999V9.59159C1.45801 7.51659 3.14134 5.83325 5.21634 5.83325H14.783C16.858 5.83325 18.5413 7.51659 18.5413 9.59159V10.7916C18.5413 11.1333 18.258 11.4166 17.9163 11.4166H16.233C15.9413 11.4166 15.6747 11.5249 15.483 11.7249L15.4747 11.7333C15.2413 11.9583 15.133 12.2666 15.158 12.5832C15.208 13.1332 15.733 13.5749 16.333 13.5749H17.9163C18.258 13.5749 18.5413 13.8582 18.5413 14.1999V15.1916C18.5413 17.2749 16.858 18.9583 14.783 18.9583ZM5.21634 7.08325C3.83301 7.08325 2.70801 8.20826 2.70801 9.59159V15.1999C2.70801 16.5832 3.83301 17.7083 5.21634 17.7083H14.783C16.1663 17.7083 17.2913 16.5832 17.2913 15.1999V14.8332H16.333C15.0747 14.8332 14.008 13.8999 13.908 12.6999C13.8413 12.0166 14.0913 11.3416 14.5913 10.8499C15.0247 10.4083 15.608 10.1666 16.233 10.1666H17.2913V9.59159C17.2913 8.20826 16.1663 7.08325 14.783 7.08325H5.21634Z" fill="black"/>
<path d="M2.08301 10.9668C1.74134 10.9668 1.45801 10.6834 1.45801 10.3418V6.53347C1.45801 5.2918 2.24134 4.16675 3.39967 3.72509L10.0163 1.22509C10.6997 0.966752 11.458 1.05846 12.0497 1.47513C12.6497 1.89179 12.9997 2.56679 12.9997 3.29179V6.45844C12.9997 6.80011 12.7163 7.08344 12.3747 7.08344C12.033 7.08344 11.7497 6.80011 11.7497 6.45844V3.29179C11.7497 2.97512 11.5997 2.68344 11.333 2.50011C11.0663 2.31678 10.7497 2.27511 10.4497 2.39177L3.83301 4.89177C3.15801 5.15011 2.69967 5.80847 2.69967 6.53347V10.3418C2.70801 10.6918 2.42467 10.9668 2.08301 10.9668Z" fill="black"/>
<path d="M16.3331 14.8332C15.0747 14.8332 14.0081 13.8998 13.9081 12.6998C13.8414 12.0082 14.0914 11.3332 14.5914 10.8415C15.0164 10.4082 15.5997 10.1665 16.2247 10.1665H17.9581C18.7831 10.1915 19.4164 10.8415 19.4164 11.6415V13.3582C19.4164 14.1582 18.7831 14.8082 17.9831 14.8332H16.3331ZM17.9414 11.4165H16.2331C15.9414 11.4165 15.6747 11.5248 15.4831 11.7248C15.2414 11.9582 15.1247 12.2748 15.1581 12.5915C15.2081 13.1415 15.7331 13.5832 16.3331 13.5832H17.9664C18.0747 13.5832 18.1747 13.4832 18.1747 13.3582V11.6415C18.1747 11.5165 18.0747 11.4248 17.9414 11.4165Z" fill="black"/>
<path d="M11.6663 10.625H5.83301C5.49134 10.625 5.20801 10.3417 5.20801 10C5.20801 9.65833 5.49134 9.375 5.83301 9.375H11.6663C12.008 9.375 12.2913 9.65833 12.2913 10C12.2913 10.3417 12.008 10.625 11.6663 10.625Z" fill="black"/>
</svg>
