<svg width="180" height="180" viewBox="0 0 180 180" fill="none" xmlns="http://www.w3.org/2000/svg">
<path d="M90.0742 170.625C85.3492 170.625 80.6242 169.05 76.9492 165.9L65.0991 155.7C63.8991 154.65 60.8992 153.6 59.3242 153.6H46.3491C35.2491 153.6 26.2492 144.6 26.2492 133.5V120.675C26.2492 119.1 25.1992 116.175 24.1492 114.975L14.0241 103.05C7.87412 95.7749 7.87412 84.3001 14.0241 77.0251L24.1492 65.1004C25.1992 63.9004 26.2492 60.9753 26.2492 59.4003V46.5747C26.2492 35.4747 35.2491 26.4752 46.3491 26.4752H59.3242C60.8992 26.4752 63.8991 25.35 65.0991 24.375L76.9492 14.1751C84.2992 7.87507 95.7742 7.87507 103.124 14.1751L114.974 24.375C116.174 25.425 119.174 26.4752 120.749 26.4752H133.499C144.599 26.4752 153.599 35.4747 153.599 46.5747V59.3252C153.599 60.9002 154.724 63.9004 155.774 65.1004L165.899 76.95C172.199 84.3 172.199 95.775 165.899 103.125L155.774 114.975C154.724 116.175 153.674 119.175 153.674 120.75V133.5C153.674 144.6 144.674 153.6 133.574 153.6H120.824C119.249 153.6 116.249 154.725 115.049 155.7L103.199 165.9C99.4492 169.05 94.7242 170.625 90.0742 170.625ZM46.3491 37.6501C41.4741 37.6501 37.4992 41.6246 37.4992 46.4996V59.3252C37.4992 63.6002 35.4741 69.0751 32.7741 72.3001L22.6491 84.2248C20.0241 87.2998 20.0241 92.625 22.6491 95.7L32.7741 107.625C35.5491 110.925 37.5742 116.4 37.5742 120.6V133.425C37.5742 138.3 41.5492 142.275 46.4242 142.275H59.3993C63.7493 142.275 69.2243 144.3 72.5243 147.15L84.3742 157.35C87.4492 159.975 92.8492 159.975 95.9242 157.35L107.774 147.15C111.074 144.375 116.549 142.275 120.899 142.275H133.649C138.524 142.275 142.499 138.3 142.499 133.425V120.675C142.499 116.325 144.524 110.85 147.374 107.55L157.499 95.7C160.124 92.625 160.124 87.2247 157.499 84.1497L147.374 72.3001C144.599 69.0001 142.499 63.5251 142.499 59.1751V46.4245C142.499 41.5495 138.524 37.575 133.649 37.575H120.899C116.624 37.575 111.074 35.5499 107.774 32.6999L95.9242 22.5C92.8492 19.875 87.4492 19.875 84.3742 22.5L72.5243 32.6999C69.2243 35.4749 63.7493 37.575 59.3993 37.575H46.3491V37.6501Z" fill="url(#paint0_linear_14_3343)"/>
<path d="M104.998 127.274H91.6482C88.4982 127.274 83.7731 126.299 80.9981 123.524L70.6483 115.574L77.5481 106.649L88.4232 115.049C89.1732 115.574 90.5232 115.949 91.6482 115.949H104.998C106.798 115.949 108.973 114.374 109.348 112.799L117.898 86.7735C118.123 86.0985 118.123 85.6491 118.048 85.4991C117.898 85.2741 117.373 85.0487 116.623 85.0487H102.598C99.8981 85.0487 97.4232 83.9243 95.6232 81.8993C93.8982 79.8743 93.0731 77.1743 93.4481 74.3993L95.2483 63.0742C95.3983 62.4742 94.9482 61.7236 94.4982 61.5736C94.0482 61.4986 93.3733 61.6489 93.1483 61.8739L78.8232 83.1737L69.4482 76.8739L83.8481 55.4991C86.8481 50.9991 93.1482 49.0492 98.2482 50.9242C103.948 52.7992 107.623 59.2493 106.348 65.0993L104.998 73.6485H116.623C121.048 73.6485 124.948 75.524 127.273 78.824C129.523 82.049 130.048 86.2492 128.623 90.2242L120.223 115.724C118.648 122.174 111.973 127.274 104.998 127.274Z" fill="url(#paint1_linear_14_3343)"/>
<path d="M66.7518 123.451H63.2268C52.2018 123.451 50.5518 115.726 50.5518 111.151V76.8008C50.5518 72.2258 52.2018 64.5007 63.2268 64.5007H66.7518C77.7768 64.5007 79.4268 72.2258 79.4268 76.8008V111.151C79.4268 115.726 77.7768 123.451 66.7518 123.451ZM61.9519 112.126C62.2519 112.201 62.7018 112.201 63.3018 112.201H66.8269C67.4269 112.201 67.8768 112.201 68.1768 112.126C68.1768 111.901 68.2519 111.601 68.2519 111.151V76.8008C68.2519 76.3508 68.2518 76.0508 68.1768 75.8258C67.8768 75.7508 67.4269 75.7507 66.8269 75.7507H63.3018C62.7018 75.7507 62.2519 75.7508 61.9519 75.8258C61.9519 76.0508 61.8768 76.3508 61.8768 76.8008V111.151C61.8768 111.601 61.8769 111.901 61.9519 112.126Z" fill="url(#paint2_linear_14_3343)"/>
<defs>
<linearGradient id="paint0_linear_14_3343" x1="90.0179" y1="9.45007" x2="90.0179" y2="170.625" gradientUnits="userSpaceOnUse">
<stop stop-color="#CCDEFF"/>
<stop offset="1" stop-color="#F8F8F8"/>
</linearGradient>
<linearGradient id="paint1_linear_14_3343" x1="99.4319" y1="50.2148" x2="99.4319" y2="127.274" gradientUnits="userSpaceOnUse">
<stop stop-color="#CCDEFF"/>
<stop offset="1" stop-color="#F8F8F8"/>
</linearGradient>
<linearGradient id="paint2_linear_14_3343" x1="64.9893" y1="64.5007" x2="64.9893" y2="123.451" gradientUnits="userSpaceOnUse">
<stop stop-color="#CCDEFF"/>
<stop offset="1" stop-color="#F8F8F8"/>
</linearGradient>
</defs>
</svg>
