<svg width="35" height="35" viewBox="0 0 35 35" fill="none" xmlns="http://www.w3.org/2000/svg">
<path d="M17.5003 24.4269C16.917 24.4269 16.3337 24.3832 15.7795 24.2811C12.6878 23.829 9.87324 22.0498 8.09408 19.4102C6.85449 17.5436 6.19824 15.3707 6.19824 13.1248C6.19824 6.89775 11.2732 1.82275 17.5003 1.82275C23.7274 1.82275 28.8024 6.89775 28.8024 13.1248C28.8024 15.3707 28.1462 17.5436 26.9066 19.4102C25.1128 22.0644 22.2982 23.829 19.1774 24.2957C18.667 24.3832 18.0837 24.4269 17.5003 24.4269ZM17.5003 4.01025C12.4691 4.01025 8.38574 8.09359 8.38574 13.1248C8.38574 14.9478 8.91074 16.6978 9.90241 18.1853C11.3462 20.3144 13.6066 21.7436 16.1149 22.1082C17.0482 22.2686 17.967 22.2686 18.8274 22.1082C21.3795 21.7436 23.6399 20.2998 25.0837 18.1707C26.0753 16.6832 26.6003 14.9332 26.6003 13.1102C26.6149 8.09357 22.5316 4.01025 17.5003 4.01025Z" fill="white"/>
<path d="M9.43468 32.9436C9.23052 32.9436 9.04093 32.9145 8.83677 32.8707C7.88885 32.652 7.15968 31.9228 6.94093 30.9749L6.43052 28.8311C6.40135 28.6999 6.29927 28.5978 6.15343 28.554L3.74718 27.9853C2.84302 27.7665 2.12843 27.0957 1.88052 26.2061C1.6326 25.3165 1.88052 24.354 2.53677 23.6978L8.22427 18.0103C8.4576 17.777 8.77843 17.6603 9.09927 17.6895C9.4201 17.7186 9.71177 17.8936 9.90135 18.1707C11.3451 20.2999 13.6055 21.7436 16.1284 22.1082C17.0618 22.2686 17.9805 22.2686 18.8409 22.1082C21.393 21.7436 23.6534 20.2999 25.0972 18.1707C25.2722 17.8936 25.5784 17.7186 25.8993 17.6895C26.2201 17.6603 26.5409 17.777 26.7743 18.0103L32.4618 23.6978C33.118 24.354 33.3659 25.3165 33.118 26.2061C32.8701 27.0957 32.1409 27.7811 31.2513 27.9853L28.8451 28.554C28.7138 28.5832 28.6118 28.6853 28.568 28.8311L28.0576 30.9749C27.8388 31.9228 27.1097 32.652 26.1618 32.8707C25.2138 33.1041 24.2368 32.7686 23.6243 32.0249L17.4993 24.9811L11.3743 32.0395C10.8784 32.6228 10.1784 32.9436 9.43468 32.9436ZM8.88052 20.4603L4.0826 25.2582C3.95135 25.3895 3.96593 25.5353 3.9951 25.6228C4.00968 25.6957 4.0826 25.8415 4.2576 25.8707L6.66385 26.4395C7.61177 26.6582 8.34093 27.3874 8.55968 28.3353L9.0701 30.479C9.11385 30.6686 9.25968 30.7269 9.34718 30.7561C9.43468 30.7707 9.58052 30.7853 9.71177 30.6395L15.2972 24.2082C12.818 23.727 10.543 22.3999 8.88052 20.4603ZM19.7013 24.1936L25.2868 30.6103C25.418 30.7707 25.5784 30.7707 25.6659 30.7415C25.7534 30.7269 25.8847 30.6541 25.943 30.4645L26.4534 28.3207C26.6722 27.3728 27.4013 26.6436 28.3493 26.4249L30.7555 25.8561C30.9305 25.8124 31.0034 25.6811 31.018 25.6082C31.0472 25.5353 31.0618 25.3749 30.9305 25.2436L26.1326 20.4457C24.4555 22.3853 22.1951 23.7124 19.7013 24.1936Z" fill="white"/>
<path d="M20.2563 18.798C19.8771 18.798 19.425 18.696 18.8854 18.3751L17.5 17.5439L16.1146 18.3605C14.8458 19.1189 14.0146 18.6814 13.7083 18.4626C13.4021 18.2439 12.7458 17.5876 13.0813 16.1439L13.4313 14.6418L12.2646 13.5626C11.6229 12.9209 11.3896 12.148 11.6083 11.448C11.8271 10.748 12.4688 10.2522 13.3729 10.1064L14.9333 9.84386L15.6771 8.21054C16.1 7.37929 16.7563 6.9126 17.5 6.9126C18.2438 6.9126 18.9146 7.39388 19.3229 8.22513L20.1833 9.94596L21.6271 10.1209C22.5167 10.2668 23.1583 10.7626 23.3917 11.4626C23.6104 12.1626 23.3771 12.9355 22.7354 13.5772L21.525 14.7876L21.9042 16.1439C22.2396 17.5876 21.5833 18.2439 21.2771 18.4626C21.1167 18.5939 20.7667 18.798 20.2563 18.798ZM14.0146 12.2355L15.0208 13.2418C15.4875 13.7084 15.7208 14.496 15.575 15.1376L15.2979 16.3043L16.4646 15.6188C17.0917 15.2543 17.9375 15.2543 18.55 15.6188L19.7167 16.3043L19.4542 15.1376C19.3083 14.4814 19.5271 13.7084 19.9938 13.2418L21 12.2355L19.7313 12.0168C19.1188 11.9147 18.5063 11.4626 18.2292 10.9085L17.5 9.47928L16.7708 10.9376C16.5083 11.4772 15.8958 11.9439 15.2833 12.046L14.0146 12.2355Z" fill="white"/>
</svg>
