<svg width="180" height="180" viewBox="0 0 180 180" fill="none" xmlns="http://www.w3.org/2000/svg">
<path d="M165.001 170.625H114.976C111.901 170.625 109.351 168.075 109.351 165V127.5C109.351 124.425 111.901 121.875 114.976 121.875H150.001C161.401 121.875 170.626 131.1 170.626 142.5V165C170.626 168.075 168.076 170.625 165.001 170.625ZM120.601 159.375H159.376V142.5C159.376 137.325 155.176 133.125 150.001 133.125H120.601V159.375Z" fill="url(#paint0_linear_14_3361)"/>
<path d="M65.0248 170.625H14.9998C11.9248 170.625 9.37482 168.075 9.37482 165V120C9.37482 108.6 18.5998 99.3751 29.9998 99.3751H65.0248C68.0998 99.3751 70.6498 101.925 70.6498 105V165C70.6498 168.075 68.0998 170.625 65.0248 170.625ZM20.6248 159.375H59.3998V110.625H29.9998C24.8248 110.625 20.6248 114.825 20.6248 120V159.375Z" fill="url(#paint1_linear_14_3361)"/>
<path d="M114.976 170.625H64.9512C61.8762 170.625 59.3262 168.075 59.3262 165V90C59.3262 78.6 68.5512 69.375 79.9512 69.375H99.9762C111.376 69.375 120.601 78.6 120.601 90V165C120.601 168.075 118.126 170.625 114.976 170.625ZM70.6512 159.375H109.426V90C109.426 84.825 105.226 80.625 100.051 80.625H80.0262C74.8512 80.625 70.6512 84.825 70.6512 90V159.375Z" fill="url(#paint2_linear_14_3361)"/>
<path d="M102.75 62.6248C100.95 62.6248 98.6997 62.0996 96.1497 60.5996L89.9997 56.9247L83.9247 60.5248C77.7747 64.1998 73.7247 62.0248 72.2247 60.9748C70.7247 59.9248 67.4997 56.6248 69.0747 49.7248L70.4998 43.4996L65.3998 38.3997C62.2498 35.2497 61.1247 31.4996 62.2497 28.0496C63.3747 24.5996 66.4497 22.1996 70.7997 21.4496L77.3248 20.3247L80.9997 12.9748C85.0497 4.9498 94.8747 4.9498 98.8497 12.9748L102.525 20.3247L109.05 21.4496C113.4 22.1996 116.55 24.5996 117.6 28.0496C118.725 31.4996 117.525 35.2497 114.45 38.3997L109.35 43.4996L110.775 49.7248C112.35 56.6998 109.125 59.9248 107.625 61.0498C106.95 61.6498 105.225 62.6248 102.75 62.6248ZM89.9997 45.5996C91.7997 45.5996 93.5997 46.0498 95.0997 46.9498L99.2998 49.4247L98.3997 45.3746C97.6497 42.2246 98.7747 38.3997 101.1 36.0747L104.925 32.2496L100.2 31.4247C97.1997 30.8997 94.2747 28.7247 92.9247 26.0247L89.9997 20.3997L87.1497 26.0247C85.7997 28.7247 82.8748 30.8997 79.8748 31.4247L75.1497 32.1748L78.9747 35.9996C81.2997 38.3246 82.3497 42.1498 81.6747 45.2998L80.7747 49.3496L84.9748 46.8747C86.3998 45.9747 88.1997 45.5996 89.9997 45.5996Z" fill="url(#paint3_linear_14_3361)"/>
<defs>
<linearGradient id="paint0_linear_14_3361" x1="139.988" y1="121.875" x2="139.988" y2="170.625" gradientUnits="userSpaceOnUse">
<stop stop-color="#CCDEFF"/>
<stop offset="1" stop-color="#F8F8F8"/>
</linearGradient>
<linearGradient id="paint1_linear_14_3361" x1="40.0123" y1="99.3751" x2="40.0123" y2="170.625" gradientUnits="userSpaceOnUse">
<stop stop-color="#CCDEFF"/>
<stop offset="1" stop-color="#F8F8F8"/>
</linearGradient>
<linearGradient id="paint2_linear_14_3361" x1="89.9637" y1="69.375" x2="89.9637" y2="170.625" gradientUnits="userSpaceOnUse">
<stop stop-color="#CCDEFF"/>
<stop offset="1" stop-color="#F8F8F8"/>
</linearGradient>
<linearGradient id="paint3_linear_14_3361" x1="89.9194" y1="6.95605" x2="89.9194" y2="62.6248" gradientUnits="userSpaceOnUse">
<stop stop-color="#CCDEFF"/>
<stop offset="1" stop-color="#F8F8F8"/>
</linearGradient>
</defs>
</svg>
