<svg width="34" height="34" viewBox="0 0 34 34" fill="none" xmlns="http://www.w3.org/2000/svg">
<path d="M20.4163 31.5966H12.9163C6.05518 31.5966 3.13851 28.666 3.13851 21.8188V15.5827C3.13851 15.0132 3.61073 14.541 4.18018 14.541C4.74962 14.541 5.22184 15.0132 5.22184 15.5827V21.8188C5.22184 27.4993 7.23573 29.5132 12.9163 29.5132H20.4024C26.083 29.5132 28.0968 27.4993 28.0968 21.8188V15.5827C28.0968 15.0132 28.5691 14.541 29.1385 14.541C29.708 14.541 30.1802 15.0132 30.1802 15.5827V21.8188C30.1941 28.666 27.2635 31.5966 20.4163 31.5966Z" fill="#015BFF"/>
<path d="M16.6665 17.7086C15.1387 17.7086 13.7498 17.1113 12.7637 16.0141C11.7776 14.9169 11.3192 13.4863 11.472 11.9586L12.4026 2.68077C12.4581 2.15299 12.9026 1.73633 13.4442 1.73633H19.9303C20.472 1.73633 20.9165 2.13911 20.972 2.68077L21.9026 11.9586C22.0553 13.4863 21.597 14.9169 20.6109 16.0141C19.5831 17.1113 18.1942 17.7086 16.6665 17.7086ZM14.3748 3.81966L13.5415 12.1669C13.4442 13.0974 13.722 13.9724 14.3053 14.6113C15.4859 15.9169 17.847 15.9169 19.0276 14.6113C19.6109 13.9586 19.8887 13.0836 19.7915 12.1669L18.9581 3.81966H14.3748Z" fill="#015BFF"/>
<path d="M25.4305 17.7086C22.6111 17.7086 20.0972 15.4308 19.8055 12.6252L18.8333 2.88911C18.8055 2.59744 18.9027 2.30577 19.0972 2.08355C19.2916 1.86133 19.5694 1.73633 19.8749 1.73633H24.1111C28.1944 1.73633 30.0972 3.44466 30.6666 7.63911L31.0555 11.5002C31.2222 13.1391 30.7222 14.6947 29.6527 15.8752C28.5833 17.0558 27.0833 17.7086 25.4305 17.7086ZM21.0277 3.81966L21.8888 12.4169C22.0694 14.153 23.6805 15.6252 25.4305 15.6252C26.4861 15.6252 27.4305 15.2224 28.1111 14.4863C28.7777 13.7502 29.0833 12.7641 28.9861 11.7086L28.5972 7.88911C28.1666 4.75022 27.1527 3.81966 24.1111 3.81966H21.0277V3.81966Z" fill="#015BFF"/>
<path d="M7.83336 17.7086C6.18058 17.7086 4.68058 17.0558 3.61114 15.8752C2.54169 14.6947 2.04169 13.1391 2.20836 11.5002L2.58336 7.68077C3.16669 3.44466 5.06947 1.73633 9.1528 1.73633H13.3889C13.6806 1.73633 13.9584 1.86133 14.1667 2.08355C14.375 2.30577 14.4584 2.59744 14.4306 2.88911L13.4584 12.6252C13.1667 15.4308 10.6528 17.7086 7.83336 17.7086ZM9.1528 3.81966C6.11114 3.81966 5.09725 4.73633 4.6528 7.91688L4.2778 11.7086C4.16669 12.7641 4.48614 13.7502 5.1528 14.4863C5.81947 15.2224 6.76392 15.6252 7.83336 15.6252C9.58336 15.6252 11.2084 14.153 11.375 12.4169L12.2361 3.81966H9.1528V3.81966Z" fill="#015BFF"/>
<path d="M20.1383 31.5971H13.1939C12.6244 31.5971 12.1522 31.1249 12.1522 30.5554V27.0832C12.1522 24.1666 13.7494 22.5693 16.6661 22.5693C19.5827 22.5693 21.18 24.1666 21.18 27.0832V30.5554C21.18 31.1249 20.7077 31.5971 20.1383 31.5971ZM14.2355 29.5138H19.0966V27.0832C19.0966 25.3332 18.4161 24.6527 16.6661 24.6527C14.9161 24.6527 14.2355 25.3332 14.2355 27.0832V29.5138Z" fill="#015BFF"/>
</svg>
