<svg width="34" height="34" viewBox="0 0 34 34" fill="none" xmlns="http://www.w3.org/2000/svg">
<path d="M13.1666 28.7356C12.4721 28.7356 11.986 28.4995 11.6943 28.2772C11.1388 27.8745 10.2777 26.8328 10.8193 24.4995L11.611 21.0828C11.6804 20.7911 11.5276 20.2633 11.3193 20.0411L8.55544 17.2772C7.09711 15.8189 7.22209 14.555 7.41654 13.93C7.61098 13.305 8.24987 12.2078 10.2776 11.8606L13.8193 11.2772C14.0832 11.2356 14.5138 10.9161 14.6249 10.68L16.5832 6.76334C17.5277 4.87445 18.7777 4.59668 19.4443 4.59668C20.111 4.59668 21.361 4.87445 22.3054 6.76334L24.2638 10.68C24.3888 10.9161 24.8054 11.2356 25.0693 11.2772L28.611 11.8606C30.6388 12.1939 31.2777 13.305 31.4721 13.93C31.6665 14.555 31.7915 15.8189 30.3332 17.2772L27.5693 20.0411C27.361 20.2495 27.2082 20.7911 27.2777 21.0828L28.0693 24.4995C28.611 26.8467 27.7499 27.8745 27.1943 28.2772C26.6387 28.68 25.4027 29.1939 23.3193 27.9578L19.9999 25.9856C19.7221 25.8189 19.1387 25.8189 18.861 25.9856L15.5415 27.9578C14.5832 28.5411 13.7777 28.7356 13.1666 28.7356ZM19.4443 6.68001C19.2221 6.68001 18.8193 6.9439 18.4443 7.6939L16.486 11.6106C16.0693 12.4578 15.0832 13.18 14.1527 13.3328L10.611 13.9161C9.81934 14.055 9.45822 14.3467 9.38878 14.5689C9.31934 14.7911 9.44431 15.2356 10.0138 15.805L12.7777 18.5689C13.486 19.2772 13.861 20.5689 13.6388 21.5411L12.8471 24.9578C12.611 25.9439 12.7637 26.4717 12.9165 26.5967C13.0693 26.7078 13.6249 26.6939 14.486 26.1661L17.8193 24.1939C18.7499 23.6383 20.1527 23.6383 21.0693 24.1939L24.3888 26.1661C25.2638 26.68 25.8193 26.7078 25.9721 26.5967C26.1249 26.4856 26.2777 25.9578 26.0415 24.9578L25.2499 21.5411C25.0276 20.555 25.3887 19.2772 26.111 18.5689L28.8749 15.805C29.4443 15.2356 29.5693 14.7772 29.4999 14.5689C29.4304 14.3606 29.0693 14.055 28.2776 13.9161L24.736 13.3328C23.8054 13.18 22.8193 12.4578 22.4027 11.6106L20.4443 7.6939C20.0693 6.9439 19.6665 6.68001 19.4443 6.68001Z" fill="#015BFF"/>
<path d="M11.1104 7.98665H2.77702C2.20757 7.98665 1.73535 7.51443 1.73535 6.94499C1.73535 6.37554 2.20757 5.90332 2.77702 5.90332H11.1104C11.6798 5.90332 12.152 6.37554 12.152 6.94499C12.152 7.51443 11.6798 7.98665 11.1104 7.98665Z" fill="#015BFF"/>
<path d="M6.94387 27.43H2.7772C2.20776 27.43 1.73553 26.9578 1.73553 26.3883C1.73553 25.8189 2.20776 25.3467 2.7772 25.3467H6.94387C7.51331 25.3467 7.98553 25.8189 7.98553 26.3883C7.98553 26.9578 7.51331 27.43 6.94387 27.43Z" fill="#015BFF"/>
<path d="M4.16609 17.7083H2.7772C2.20776 17.7083 1.73553 17.2361 1.73553 16.6667C1.73553 16.0972 2.20776 15.625 2.7772 15.625H4.16609C4.73553 15.625 5.20776 16.0972 5.20776 16.6667C5.20776 17.2361 4.73553 17.7083 4.16609 17.7083Z" fill="#015BFF"/>
</svg>
