<svg width="180" height="180" viewBox="0 0 180 180" fill="none" xmlns="http://www.w3.org/2000/svg">
<path d="M165 110.625H142.5C135.3 110.625 129.375 104.7 129.375 97.5V75C129.375 67.8 135.3 61.875 142.5 61.875H152.175C154.2 61.875 156.075 62.925 157.05 64.725L169.875 87.225C170.325 88.05 170.625 89.025 170.625 90V105C170.625 108.075 168.075 110.625 165 110.625ZM142.5 73.125C141.45 73.125 140.625 73.95 140.625 75V97.5C140.625 98.55 141.45 99.375 142.5 99.375H159.375V91.5001L148.875 73.125H142.5Z" fill="url(#paint0_linear_14_3379)"/>
<path d="M97.5 110.625H15C11.925 110.625 9.375 108.075 9.375 105V45C9.375 25.35 25.35 9.375 45 9.375H112.5C115.575 9.375 118.125 11.925 118.125 15V90C118.125 101.4 108.9 110.625 97.5 110.625ZM20.625 99.375H97.5C102.675 99.375 106.875 95.175 106.875 90V20.625H45C31.575 20.625 20.625 31.575 20.625 45V99.375Z" fill="url(#paint1_linear_14_3379)"/>
<path d="M142.5 155.625H135C131.925 155.625 129.375 153.075 129.375 150C129.375 144.825 125.175 140.625 120 140.625C114.825 140.625 110.625 144.825 110.625 150C110.625 153.075 108.075 155.625 105 155.625H75C71.925 155.625 69.375 153.075 69.375 150C69.375 144.825 65.175 140.625 60 140.625C54.825 140.625 50.625 144.825 50.625 150C50.625 153.075 48.075 155.625 45 155.625H37.5C21.975 155.625 9.375 143.025 9.375 127.5V105C9.375 101.925 11.925 99.375 15 99.375H97.5C102.675 99.375 106.875 95.175 106.875 90V37.5C106.875 34.425 109.425 31.875 112.5 31.875H126.3C133.725 31.875 140.55 35.8501 144.225 42.3001L157.05 64.725C158.025 66.45 158.025 68.625 157.05 70.35C156.075 72.075 154.2 73.125 152.175 73.125H142.5C141.45 73.125 140.625 73.95 140.625 75V97.5C140.625 98.55 141.45 99.375 142.5 99.375H165C168.075 99.375 170.625 101.925 170.625 105V127.5C170.625 143.025 158.025 155.625 142.5 155.625ZM139.875 144.375H142.5C151.8 144.375 159.375 136.8 159.375 127.5V110.625H142.5C135.3 110.625 129.375 104.7 129.375 97.5V75C129.375 67.8 135.225 61.875 142.5 61.875L134.475 47.85C132.825 44.925 129.675 43.125 126.3 43.125H118.125V90C118.125 101.4 108.9 110.625 97.5 110.625H20.625V127.5C20.625 136.8 28.2 144.375 37.5 144.375H40.125C42.6 135.75 50.55 129.375 60 129.375C69.45 129.375 77.4 135.75 79.875 144.375H100.2C102.675 135.75 110.625 129.375 120.075 129.375C129.525 129.375 137.4 135.75 139.875 144.375Z" fill="url(#paint2_linear_14_3379)"/>
<path d="M60 170.625C48.6 170.625 39.375 161.4 39.375 150C39.375 138.6 48.6 129.375 60 129.375C71.4 129.375 80.625 138.6 80.625 150C80.625 161.4 71.4 170.625 60 170.625ZM60 140.625C54.825 140.625 50.625 144.825 50.625 150C50.625 155.175 54.825 159.375 60 159.375C65.175 159.375 69.375 155.175 69.375 150C69.375 144.825 65.175 140.625 60 140.625Z" fill="url(#paint3_linear_14_3379)"/>
<path d="M120 170.625C108.6 170.625 99.375 161.4 99.375 150C99.375 138.6 108.6 129.375 120 129.375C131.4 129.375 140.625 138.6 140.625 150C140.625 161.4 131.4 170.625 120 170.625ZM120 140.625C114.825 140.625 110.625 144.825 110.625 150C110.625 155.175 114.825 159.375 120 159.375C125.175 159.375 129.375 155.175 129.375 150C129.375 144.825 125.175 140.625 120 140.625Z" fill="url(#paint4_linear_14_3379)"/>
<defs>
<linearGradient id="paint0_linear_14_3379" x1="150" y1="61.875" x2="150" y2="110.625" gradientUnits="userSpaceOnUse">
<stop stop-color="#CCDEFF"/>
<stop offset="1" stop-color="#F8F8F8"/>
</linearGradient>
<linearGradient id="paint1_linear_14_3379" x1="63.75" y1="9.375" x2="63.75" y2="110.625" gradientUnits="userSpaceOnUse">
<stop stop-color="#CCDEFF"/>
<stop offset="1" stop-color="#F8F8F8"/>
</linearGradient>
<linearGradient id="paint2_linear_14_3379" x1="90" y1="31.875" x2="90" y2="155.625" gradientUnits="userSpaceOnUse">
<stop stop-color="#CCDEFF"/>
<stop offset="1" stop-color="#F8F8F8"/>
</linearGradient>
<linearGradient id="paint3_linear_14_3379" x1="60" y1="129.375" x2="60" y2="170.625" gradientUnits="userSpaceOnUse">
<stop stop-color="#CCDEFF"/>
<stop offset="1" stop-color="#F8F8F8"/>
</linearGradient>
<linearGradient id="paint4_linear_14_3379" x1="120" y1="129.375" x2="120" y2="170.625" gradientUnits="userSpaceOnUse">
<stop stop-color="#CCDEFF"/>
<stop offset="1" stop-color="#F8F8F8"/>
</linearGradient>
</defs>
</svg>
