<svg width="34" height="34" viewBox="0 0 34 34" fill="none" xmlns="http://www.w3.org/2000/svg">
<path d="M18.0556 20.4868H2.77783C2.20839 20.4868 1.73617 20.0146 1.73617 19.4451V10.584C1.73617 10.1396 2.01393 9.75064 2.41671 9.59786C2.83338 9.44509 3.29173 9.57013 3.56951 9.90346C4.41673 10.9174 5.73618 11.4868 7.04173 11.4451C8.15285 11.4173 9.18059 11.0007 9.95837 10.2646C10.3195 9.95903 10.6112 9.59789 10.8334 9.19512C11.2639 8.45901 11.4723 7.65343 11.4584 6.83399C11.4306 5.55621 10.8751 4.38955 9.93065 3.54233C9.59731 3.25066 9.48617 2.7923 9.63895 2.38953C9.79173 1.98675 10.1806 1.70898 10.6112 1.70898H20.8334C21.4028 1.70898 21.8751 2.18121 21.8751 2.75065V16.6395C21.8751 18.7784 20.1667 20.4868 18.0556 20.4868ZM3.8195 18.4035H18.0556C19.0139 18.4035 19.7917 17.6257 19.7917 16.6673V3.82012H12.7639C13.2501 4.7229 13.5139 5.73681 13.5417 6.79237C13.5695 8.0007 13.2639 9.19512 12.6528 10.2368C12.3195 10.834 11.8612 11.4035 11.3612 11.8201C10.25 12.8757 8.72226 13.5007 7.09726 13.5423C5.93059 13.584 4.80563 13.2923 3.8334 12.7646V18.4035H3.8195Z" fill="#015BFF"/>
<path d="M26.3881 28.82H24.9992C24.4298 28.82 23.9576 28.3478 23.9576 27.7783C23.9576 26.82 23.1798 26.0422 22.2215 26.0422C21.2631 26.0422 20.4854 26.82 20.4854 27.7783C20.4854 28.3478 20.0131 28.82 19.4437 28.82H13.8881C13.3187 28.82 12.8465 28.3478 12.8465 27.7783C12.8465 26.82 12.0687 26.0422 11.1104 26.0422C10.152 26.0422 9.37424 26.82 9.37424 27.7783C9.37424 28.3478 8.90202 28.82 8.33257 28.82H6.94369C4.06869 28.82 1.73535 26.4867 1.73535 23.6117V19.445C1.73535 18.8755 2.20757 18.4033 2.77702 18.4033H18.0548C19.0131 18.4033 19.7909 17.6255 19.7909 16.6672V6.94499C19.7909 6.37554 20.2631 5.90332 20.8326 5.90332H23.3882C24.7632 5.90332 26.027 6.63945 26.7075 7.8339L29.0826 11.9867C29.2631 12.3061 29.2631 12.7089 29.0826 13.0283C28.902 13.3478 28.5548 13.5422 28.1798 13.5422H26.3881C26.1937 13.5422 26.0409 13.695 26.0409 13.8894V18.0561C26.0409 18.2505 26.1937 18.4033 26.3881 18.4033H30.5548C31.1242 18.4033 31.5965 18.8755 31.5965 19.445V23.6117C31.5965 26.4867 29.2631 28.82 26.3881 28.82ZM25.9021 26.7367H26.3881C28.1104 26.7367 29.5131 25.3339 29.5131 23.6117V20.4867H26.3881C25.0548 20.4867 23.9576 19.3894 23.9576 18.0561V13.8894C23.9576 12.5561 25.0409 11.4589 26.3881 11.4589L24.902 8.86166C24.5965 8.31999 24.0132 7.98665 23.3882 7.98665H21.8742V16.6672C21.8742 18.7783 20.1659 20.4867 18.0548 20.4867H3.81868V23.6117C3.81868 25.3339 5.22146 26.7367 6.94369 26.7367H7.42976C7.8881 25.1394 9.36035 23.9589 11.1104 23.9589C12.8604 23.9589 14.3326 25.1394 14.7909 26.7367H18.5548C19.0131 25.1394 20.4854 23.9589 22.2354 23.9589C23.9854 23.9589 25.4437 25.1394 25.9021 26.7367Z" fill="#015BFF"/>
<path d="M11.1109 31.5969C8.99984 31.5969 7.2915 29.8886 7.2915 27.7775C7.2915 25.6663 8.99984 23.958 11.1109 23.958C13.2221 23.958 14.9304 25.6663 14.9304 27.7775C14.9304 29.8886 13.2221 31.5969 11.1109 31.5969ZM11.1109 26.0413C10.1526 26.0413 9.37484 26.8191 9.37484 27.7775C9.37484 28.7358 10.1526 29.5136 11.1109 29.5136C12.0693 29.5136 12.8471 28.7358 12.8471 27.7775C12.8471 26.8191 12.0693 26.0413 11.1109 26.0413Z" fill="#015BFF"/>
<path d="M22.2223 31.5969C20.1112 31.5969 18.4028 29.8886 18.4028 27.7775C18.4028 25.6663 20.1112 23.958 22.2223 23.958C24.3334 23.958 26.0417 25.6663 26.0417 27.7775C26.0417 29.8886 24.3334 31.5969 22.2223 31.5969ZM22.2223 26.0413C21.2639 26.0413 20.4862 26.8191 20.4862 27.7775C20.4862 28.7358 21.2639 29.5136 22.2223 29.5136C23.1806 29.5136 23.9584 28.7358 23.9584 27.7775C23.9584 26.8191 23.1806 26.0413 22.2223 26.0413Z" fill="#015BFF"/>
<path d="M30.5554 20.4858H26.3887C25.0554 20.4858 23.9582 19.3886 23.9582 18.0552V13.8886C23.9582 12.5552 25.0554 11.458 26.3887 11.458H28.1804C28.5554 11.458 28.9026 11.6525 29.0832 11.9858L31.4582 16.1525C31.5415 16.3052 31.5971 16.4858 31.5971 16.6663V19.4441C31.5971 20.0136 31.1248 20.4858 30.5554 20.4858ZM26.3887 13.5413C26.1943 13.5413 26.0415 13.6941 26.0415 13.8886V18.0552C26.0415 18.2497 26.1943 18.4025 26.3887 18.4025H29.5137V16.9441L27.5692 13.5413H26.3887Z" fill="#015BFF"/>
<path d="M6.93052 13.5411C5.01385 13.5411 3.2083 12.7078 1.98607 11.2494C1.79163 11.0411 1.58332 10.7494 1.40276 10.4716C0.749987 9.48554 0.388875 8.31888 0.361098 7.09666C0.305542 5.06888 1.16667 3.16609 2.72223 1.87442C3.90278 0.902201 5.31938 0.374457 6.81938 0.34668C8.45827 0.360569 10.0972 0.902239 11.3195 1.99946C12.7083 3.22168 13.5139 4.93003 13.5555 6.79114C13.5833 7.99948 13.2777 9.19389 12.6666 10.2356C12.3333 10.8328 11.875 11.4022 11.375 11.8189C10.2639 12.8745 8.73608 13.4995 7.11108 13.5411C7.04163 13.5411 6.98607 13.5411 6.93052 13.5411ZM6.93052 2.43001C6.90274 2.43001 6.87496 2.43001 6.84719 2.43001C5.8333 2.4439 4.86105 2.81892 4.0416 3.48558C2.98605 4.36058 2.40275 5.66613 2.43053 7.04113C2.45831 7.87447 2.69443 8.66615 3.13888 9.31893C3.26388 9.51338 3.38885 9.69387 3.54162 9.86053C4.43051 10.9161 5.74998 11.4717 7.04165 11.4439C8.15276 11.4161 9.18051 10.9995 9.95828 10.2634C10.3194 9.95781 10.6111 9.59667 10.8333 9.19389C11.2638 8.45778 11.4722 7.65221 11.4583 6.83277C11.4305 5.55499 10.875 4.38833 9.93056 3.54111C9.09723 2.83277 8.04163 2.43001 6.93052 2.43001Z" fill="#015BFF"/>
<path d="M6.1806 9.37402C5.91672 9.37402 5.66669 9.27676 5.45836 9.08232L4.05556 7.74904C3.6389 7.34626 3.62507 6.69349 4.02784 6.27682C4.43062 5.86015 5.0834 5.84624 5.50006 6.24902L6.1806 6.90175L8.36117 4.7907C8.77784 4.38792 9.43061 4.40175 9.83339 4.81842C10.2362 5.23509 10.2223 5.88795 9.80558 6.29072L6.90277 9.09622C6.69444 9.27678 6.4306 9.37402 6.1806 9.37402Z" fill="#015BFF"/>
</svg>
