<svg width="20" height="20" viewBox="0 0 20 20" fill="none" xmlns="http://www.w3.org/2000/svg">
<path d="M10.8328 12.2917H9.99949C9.65782 12.2917 9.37449 12.0084 9.37449 11.6667C9.37449 11.3251 9.65782 11.0417 9.99949 11.0417H10.8328C11.4078 11.0417 11.8745 10.5751 11.8745 10.0001V2.29175H4.99949C4.01616 2.29175 3.11613 2.82507 2.6328 3.6834C2.46613 3.9834 2.08283 4.09177 1.78283 3.9251C1.48283 3.75843 1.37447 3.37508 1.54114 3.07508C2.24114 1.82508 3.56616 1.04175 4.99949 1.04175H12.4995C12.8412 1.04175 13.1245 1.32508 13.1245 1.66675V10.0001C13.1245 11.2667 12.0995 12.2917 10.8328 12.2917Z" fill="black"/>
<path d="M15.8337 17.2917H15.0003C14.6587 17.2917 14.3753 17.0084 14.3753 16.6667C14.3753 16.0917 13.9087 15.6251 13.3337 15.6251C12.7587 15.6251 12.292 16.0917 12.292 16.6667C12.292 17.0084 12.0087 17.2917 11.667 17.2917H8.33366C7.99199 17.2917 7.70866 17.0084 7.70866 16.6667C7.70866 16.0917 7.24199 15.6251 6.66699 15.6251C6.09199 15.6251 5.62533 16.0917 5.62533 16.6667C5.62533 17.0084 5.34199 17.2917 5.00033 17.2917H4.16699C2.44199 17.2917 1.04199 15.8917 1.04199 14.1667C1.04199 13.8251 1.32533 13.5417 1.66699 13.5417C2.00866 13.5417 2.29199 13.8251 2.29199 14.1667C2.29199 15.2001 3.13366 16.0417 4.16699 16.0417H4.45864C4.73364 15.0834 5.61699 14.3751 6.66699 14.3751C7.71699 14.3751 8.60035 15.0834 8.87535 16.0417H11.1336C11.4086 15.0834 12.292 14.3751 13.342 14.3751C14.392 14.3751 15.2753 15.0834 15.5503 16.0417H15.8337C16.867 16.0417 17.7087 15.2001 17.7087 14.1667V12.2917H15.8337C15.0337 12.2917 14.3753 11.6334 14.3753 10.8334V8.33341C14.3753 7.53341 15.0253 6.87508 15.8337 6.87508L14.942 5.31675C14.7587 4.99175 14.4087 4.79175 14.0337 4.79175H13.1253V10.0001C13.1253 11.2667 12.1003 12.2917 10.8337 12.2917H10.0003C9.65866 12.2917 9.37533 12.0084 9.37533 11.6667C9.37533 11.3251 9.65866 11.0417 10.0003 11.0417H10.8337C11.4087 11.0417 11.8753 10.5751 11.8753 10.0001V4.16675C11.8753 3.82508 12.1587 3.54175 12.5003 3.54175H14.0337C14.8587 3.54175 15.617 3.98343 16.0253 4.70009L17.4503 7.19175C17.5587 7.38342 17.5587 7.62509 17.4503 7.81675C17.342 8.00842 17.1336 8.12508 16.9086 8.12508H15.8337C15.717 8.12508 15.6253 8.21675 15.6253 8.33341V10.8334C15.6253 10.9501 15.717 11.0417 15.8337 11.0417H18.3337C18.6753 11.0417 18.9587 11.3251 18.9587 11.6667V14.1667C18.9587 15.8917 17.5587 17.2917 15.8337 17.2917Z" fill="black"/>
<path d="M6.66667 18.9583C5.4 18.9583 4.375 17.9333 4.375 16.6667C4.375 15.4 5.4 14.375 6.66667 14.375C7.93333 14.375 8.95833 15.4 8.95833 16.6667C8.95833 17.9333 7.93333 18.9583 6.66667 18.9583ZM6.66667 15.625C6.09167 15.625 5.625 16.0917 5.625 16.6667C5.625 17.2417 6.09167 17.7083 6.66667 17.7083C7.24167 17.7083 7.70833 17.2417 7.70833 16.6667C7.70833 16.0917 7.24167 15.625 6.66667 15.625Z" fill="black"/>
<path d="M13.3337 18.9583C12.067 18.9583 11.042 17.9333 11.042 16.6667C11.042 15.4 12.067 14.375 13.3337 14.375C14.6003 14.375 15.6253 15.4 15.6253 16.6667C15.6253 17.9333 14.6003 18.9583 13.3337 18.9583ZM13.3337 15.625C12.7587 15.625 12.292 16.0917 12.292 16.6667C12.292 17.2417 12.7587 17.7083 13.3337 17.7083C13.9087 17.7083 14.3753 17.2417 14.3753 16.6667C14.3753 16.0917 13.9087 15.625 13.3337 15.625Z" fill="black"/>
<path d="M18.3333 12.2917H15.8333C15.0333 12.2917 14.375 11.6333 14.375 10.8333V8.33333C14.375 7.53333 15.0333 6.875 15.8333 6.875H16.9083C17.1333 6.875 17.3417 6.99167 17.45 7.19167L18.875 9.69167C18.925 9.78334 18.9583 9.89167 18.9583 10V11.6667C18.9583 12.0083 18.675 12.2917 18.3333 12.2917ZM15.8333 8.125C15.7167 8.125 15.625 8.21667 15.625 8.33333V10.8333C15.625 10.95 15.7167 11.0417 15.8333 11.0417H17.7083V10.1667L16.5416 8.125H15.8333Z" fill="black"/>
<path d="M6.66699 7.29175H1.66699C1.32533 7.29175 1.04199 7.00841 1.04199 6.66675C1.04199 6.32508 1.32533 6.04175 1.66699 6.04175H6.66699C7.00866 6.04175 7.29199 6.32508 7.29199 6.66675C7.29199 7.00841 7.00866 7.29175 6.66699 7.29175Z" fill="black"/>
<path d="M5.00033 9.79175H1.66699C1.32533 9.79175 1.04199 9.50841 1.04199 9.16675C1.04199 8.82508 1.32533 8.54175 1.66699 8.54175H5.00033C5.34199 8.54175 5.62533 8.82508 5.62533 9.16675C5.62533 9.50841 5.34199 9.79175 5.00033 9.79175Z" fill="black"/>
<path d="M3.33366 12.2917H1.66699C1.32533 12.2917 1.04199 12.0084 1.04199 11.6667C1.04199 11.3251 1.32533 11.0417 1.66699 11.0417H3.33366C3.67533 11.0417 3.95866 11.3251 3.95866 11.6667C3.95866 12.0084 3.67533 12.2917 3.33366 12.2917Z" fill="black"/>
</svg>
