<svg width="34" height="34" viewBox="0 0 34 34" fill="none" xmlns="http://www.w3.org/2000/svg">
<path d="M14.9862 21.0704C14.7084 21.0704 14.4446 20.9593 14.2501 20.7649L10.889 17.4038C10.4862 17.001 10.4862 16.3343 10.889 15.9315C11.2918 15.5288 11.9584 15.5288 12.3612 15.9315L14.9862 18.5565L20.9584 12.5843C21.3612 12.1815 22.0279 12.1815 22.4307 12.5843C22.8334 12.9871 22.8334 13.6538 22.4307 14.0565L15.7223 20.7649C15.5279 20.9593 15.264 21.0704 14.9862 21.0704Z" fill="#015BFF"/>
<path d="M16.6656 31.5974C15.7906 31.5974 14.9156 31.3058 14.2351 30.7224L12.0406 28.8336C11.8184 28.6391 11.2629 28.4447 10.9712 28.4447H8.58231C6.52676 28.4447 4.86009 26.778 4.86009 24.7224V22.3474C4.86009 22.0558 4.66565 21.5141 4.4712 21.2919L2.5962 19.0836C1.45731 17.7363 1.45731 15.6113 2.5962 14.2641L4.4712 12.0558C4.66565 11.8336 4.86009 11.2919 4.86009 11.0002V8.61133C4.86009 6.55577 6.52676 4.88911 8.58231 4.88911H10.9851C11.2768 4.88911 11.8323 4.68077 12.0545 4.50022L14.249 2.61133C15.6101 1.44466 17.7351 1.44466 19.0962 2.61133L21.2906 4.50022C21.5129 4.69466 22.0684 4.88911 22.3601 4.88911H24.7212C26.7768 4.88911 28.4434 6.55577 28.4434 8.61133V10.9724C28.4434 11.2641 28.6518 11.8197 28.8462 12.0419L30.7351 14.2363C31.9018 15.5974 31.9018 17.7224 30.7351 19.0836L28.8462 21.278C28.6518 21.5002 28.4434 22.0558 28.4434 22.3474V24.7086C28.4434 26.7641 26.7768 28.4308 24.7212 28.4308H22.3601C22.0684 28.4308 21.5129 28.6391 21.2906 28.8197L19.0962 30.7086C18.4156 31.3058 17.5406 31.5974 16.6656 31.5974ZM8.58231 6.97244C7.67953 6.97244 6.94342 7.70855 6.94342 8.61133V10.9863C6.94342 11.778 6.56842 12.7919 6.05454 13.3891L4.17954 15.5974C3.69342 16.1669 3.69342 17.153 4.17954 17.7224L6.05454 19.9308C6.56842 20.5419 6.94342 21.5419 6.94342 22.3336V24.7086C6.94342 25.6113 7.67953 26.3474 8.58231 26.3474H10.9851C11.7906 26.3474 12.8045 26.7224 13.4156 27.2502L15.6101 29.1391C16.1795 29.6252 17.1795 29.6252 17.749 29.1391L19.9434 27.2502C20.5545 26.7363 21.5684 26.3474 22.374 26.3474H24.7351C25.6379 26.3474 26.374 25.6113 26.374 24.7086V22.3474C26.374 21.5419 26.749 20.528 27.2768 19.9169L29.1656 17.7224C29.6518 17.153 29.6518 16.153 29.1656 15.5836L27.2768 13.3891C26.749 12.778 26.374 11.7641 26.374 10.9586V8.61133C26.374 7.70855 25.6379 6.97244 24.7351 6.97244H22.374C21.5684 6.97244 20.5545 6.59744 19.9434 6.06966L17.749 4.18077C17.1795 3.69466 16.1795 3.69466 15.6101 4.18077L13.4156 6.08355C12.8045 6.59744 11.7768 6.97244 10.9851 6.97244H8.58231Z" fill="#015BFF"/>
</svg>
