<svg width="35" height="35" viewBox="0 0 35 35" fill="none" xmlns="http://www.w3.org/2000/svg">
<path d="M15.7355 22.1231C15.4438 22.1231 15.1667 22.0064 14.9626 21.8023L11.4334 18.2731C11.0105 17.8502 11.0105 17.1502 11.4334 16.7273C11.8563 16.3044 12.5563 16.3044 12.9792 16.7273L15.7355 19.4835L22.0063 13.2127C22.4292 12.7898 23.1292 12.7898 23.5521 13.2127C23.9751 13.6356 23.9751 14.3356 23.5521 14.7585L16.5084 21.8023C16.3042 22.0064 16.0271 22.1231 15.7355 22.1231Z" fill="white"/>
<path d="M17.4999 33.1769C16.5811 33.1769 15.6624 32.8707 14.9478 32.2582L12.6436 30.2748C12.4103 30.0707 11.827 29.8665 11.5207 29.8665H9.01237C6.85404 29.8665 5.10404 28.1165 5.10404 25.9582V23.4644C5.10404 23.1582 4.89987 22.5894 4.6957 22.3561L2.72695 20.0373C1.53112 18.6228 1.53112 16.3915 2.72695 14.9769L4.6957 12.6582C4.89987 12.4248 5.10404 11.8561 5.10404 11.5498V9.0415C5.10404 6.88317 6.85404 5.13317 9.01237 5.13317H11.5353C11.8415 5.13317 12.4249 4.91442 12.6582 4.72484L14.9624 2.7415C16.3915 1.5165 18.6228 1.5165 20.052 2.7415L22.3561 4.72484C22.5895 4.929 23.1728 5.13317 23.479 5.13317H25.9582C28.1165 5.13317 29.8665 6.88317 29.8665 9.0415V11.5207C29.8665 11.8269 30.0853 12.4103 30.2895 12.6436L32.2728 14.9478C33.4978 16.3769 33.4978 18.6082 32.2728 20.0373L30.2895 22.3415C30.0853 22.5748 29.8665 23.1582 29.8665 23.4644V25.9436C29.8665 28.1019 28.1165 29.8519 25.9582 29.8519H23.479C23.1728 29.8519 22.5895 30.0707 22.3561 30.2603L20.052 32.2436C19.3374 32.8707 18.4186 33.1769 17.4999 33.1769ZM9.01237 7.32067C8.06445 7.32067 7.29154 8.09359 7.29154 9.0415V11.5353C7.29154 12.3665 6.89779 13.4311 6.3582 14.0582L4.38945 16.3769C3.87904 16.9748 3.87904 18.0103 4.38945 18.6082L6.3582 20.9269C6.89779 21.5686 7.29154 22.6186 7.29154 23.4498V25.9436C7.29154 26.8915 8.06445 27.6644 9.01237 27.6644H11.5353C12.3811 27.6644 13.4457 28.0582 14.0874 28.6123L16.3915 30.5957C16.9895 31.1061 18.0395 31.1061 18.6374 30.5957L20.9415 28.6123C21.5832 28.0728 22.6478 27.6644 23.4936 27.6644H25.9728C26.9207 27.6644 27.6936 26.8915 27.6936 25.9436V23.4644C27.6936 22.6186 28.0874 21.554 28.6415 20.9123L30.6249 18.6082C31.1353 18.0103 31.1353 16.9603 30.6249 16.3623L28.6415 14.0582C28.0874 13.4165 27.6936 12.3519 27.6936 11.5061V9.0415C27.6936 8.09359 26.9207 7.32067 25.9728 7.32067H23.4936C22.6478 7.32067 21.5832 6.92692 20.9415 6.37275L18.6374 4.38942C18.0395 3.879 16.9895 3.879 16.3915 4.38942L14.0874 6.38734C13.4457 6.92692 12.3665 7.32067 11.5353 7.32067H9.01237Z" fill="white"/>
</svg>
