<svg width="93" height="92" viewBox="0 0 93 92" fill="none" xmlns="http://www.w3.org/2000/svg">
<rect x="0.875977" y="0.21875" width="91.5618" height="91.5618" rx="20" fill="url(#paint0_linear_1_5152)"/>
<path d="M39.0373 46.1169C39.0373 41.8993 42.4544 38.4793 46.6708 38.4793C50.8872 38.4793 54.3061 41.8993 54.3061 46.1169C54.3061 50.3345 50.8872 53.7544 46.6708 53.7544C42.4544 53.7544 39.0373 50.3345 39.0373 46.1169ZM34.9098 46.1169C34.9098 52.6144 40.1752 57.8813 46.6708 57.8813C53.1664 57.8813 58.4318 52.6144 58.4318 46.1169C58.4318 39.6194 53.1664 34.3524 46.6708 34.3524C40.1752 34.3524 34.9098 39.6194 34.9098 46.1169ZM56.1489 33.886C56.1487 34.4297 56.3097 34.9613 56.6115 35.4136C56.9133 35.8658 57.3424 36.2184 57.8446 36.4267C58.3467 36.635 58.8993 36.6896 59.4325 36.5838C59.9657 36.4779 60.4556 36.2162 60.8401 35.8319C61.2247 35.4475 61.4866 34.9578 61.5929 34.4245C61.6991 33.8912 61.6449 33.3384 61.4371 32.836C61.2293 32.3335 60.8772 31.904 60.4253 31.6017C59.9734 31.2994 59.4421 31.138 58.8985 31.1378H58.8974C58.1688 31.1381 57.47 31.4277 56.9547 31.943C56.4393 32.4583 56.1495 33.1571 56.1489 33.886ZM37.4175 64.7657C35.1844 64.664 33.9707 64.2919 33.1641 63.9776C32.0947 63.5611 31.3318 63.0652 30.5296 62.2638C29.7274 61.4625 29.2308 60.7 28.8163 59.6304C28.5019 58.8239 28.1299 57.6095 28.0284 55.3757C27.9174 52.9608 27.8952 52.2353 27.8952 46.117C27.8952 39.9988 27.9192 39.2753 28.0284 36.8583C28.1301 34.6246 28.5048 33.4125 28.8163 32.6037C29.2326 31.534 29.7285 30.7708 30.5296 29.9684C31.3307 29.166 32.0929 28.6693 33.1641 28.2547C33.9703 27.9402 35.1844 27.5681 37.4175 27.4665C39.8318 27.3555 40.557 27.3333 46.6708 27.3333C52.7846 27.3333 53.5105 27.3573 55.9268 27.4665C58.1599 27.5683 59.3716 27.9431 60.1802 28.2547C61.2496 28.6693 62.0126 29.1671 62.8148 29.9684C63.617 30.7697 64.1117 31.534 64.528 32.6037C64.8424 33.4102 65.2144 34.6246 65.3159 36.8583C65.4269 39.2753 65.4491 39.9988 65.4491 46.117C65.4491 52.2353 65.4269 52.9588 65.3159 55.3757C65.2142 57.6095 64.8404 58.8235 64.528 59.6304C64.1117 60.7 63.6159 61.4632 62.8148 62.2638C62.0137 63.0644 61.2496 63.5611 60.1802 63.9776C59.374 64.2921 58.1599 64.6642 55.9268 64.7657C53.5125 64.8768 52.7873 64.8989 46.6708 64.8989C40.5543 64.8989 39.831 64.8768 37.4175 64.7657ZM37.2278 23.3448C34.7896 23.4559 33.1234 23.8426 31.6684 24.409C30.1615 24.9938 28.8858 25.7785 27.611 27.0516C26.3363 28.3247 25.5539 29.6027 24.9692 31.1101C24.403 32.5665 24.0163 34.2322 23.9053 36.6712C23.7924 39.114 23.7666 39.895 23.7666 46.1169C23.7666 52.3387 23.7924 53.1197 23.9053 55.5625C24.0163 58.0017 24.403 59.6672 24.9692 61.1236C25.5539 62.63 26.3365 63.9096 27.611 65.1821C28.8856 66.4547 30.1615 67.2382 31.6684 67.8247C33.1262 68.3911 34.7896 68.7778 37.2278 68.8889C39.6713 69 40.4507 69.0277 46.6708 69.0277C52.8908 69.0277 53.6716 69.0018 56.1137 68.8889C58.5522 68.7778 60.2172 68.3911 61.6732 67.8247C63.1792 67.2382 64.4558 66.4552 65.7305 65.1821C67.0053 63.909 67.7861 62.63 68.3724 61.1236C68.9386 59.6672 69.3271 58.0015 69.4363 55.5625C69.5473 53.1178 69.5731 52.3387 69.5731 46.1169C69.5731 39.895 69.5473 39.114 69.4363 36.6712C69.3252 34.232 68.9386 32.5656 68.3724 31.1101C67.7861 29.6037 67.0033 28.3267 65.7305 27.0516C64.4578 25.7765 63.1792 24.9938 61.675 24.409C60.2172 23.8426 58.552 23.454 56.1156 23.3448C53.6734 23.2337 52.8927 23.2061 46.6726 23.2061C40.4526 23.2061 39.6713 23.2319 37.2278 23.3448Z" fill="white"/>
<defs>
<linearGradient id="paint0_linear_1_5152" x1="90.678" y1="91.7806" x2="-0.883838" y2="0.218748" gradientUnits="userSpaceOnUse">
<stop stop-color="#FBE18A"/>
<stop offset="0.21" stop-color="#FCBB45"/>
<stop offset="0.38" stop-color="#F75274"/>
<stop offset="0.52" stop-color="#D53692"/>
<stop offset="0.74" stop-color="#8F39CE"/>
<stop offset="1" stop-color="#5B4FE9"/>
</linearGradient>
</defs>
</svg>
