<svg width="92" height="92" viewBox="0 0 92 92" fill="none" xmlns="http://www.w3.org/2000/svg">
<rect x="0.438477" y="0.5" width="91" height="91" rx="17.29" fill="#25D366"/>
<path fill-rule="evenodd" clip-rule="evenodd" d="M68.9676 22.9454C62.8582 16.8575 54.7326 13.5031 46.075 13.5C28.2352 13.5 13.7163 27.9477 13.71 45.7066C13.7069 51.3837 15.1983 56.9249 18.0303 61.8083L13.4385 78.5L30.5955 74.0213C35.3224 76.5881 40.6451 77.9394 46.0611 77.941H46.075C63.9117 77.941 78.4323 63.4917 78.4385 45.7328C78.4415 37.1261 75.0787 29.035 68.9676 22.947V22.9454ZM46.075 72.5016H46.0641C41.2379 72.5002 36.5034 71.2089 32.3724 68.7704L31.3901 68.1898L21.2085 70.8476L23.9258 60.9681L23.2864 59.955C20.594 55.6926 19.1709 50.7659 19.174 45.7082C19.1803 30.9485 31.2473 18.9393 46.086 18.9393C53.2708 18.9424 60.0245 21.73 65.1035 26.791C70.1828 31.8504 72.9776 38.5778 72.9745 45.7297C72.9682 60.491 60.9013 72.5002 46.075 72.5002V72.5016ZM60.8298 52.4525C60.0213 52.0494 56.0456 50.1034 55.3037 49.8347C54.562 49.5659 54.0236 49.4317 53.485 50.2378C52.9466 51.0441 51.3963 52.8571 50.9245 53.3929C50.4527 53.9304 49.9809 53.9969 49.1724 53.5937C48.3641 53.1906 45.7585 52.3412 42.6688 49.5999C40.2651 47.4655 38.6417 44.8309 38.1701 44.0247C37.6983 43.2186 38.1204 42.783 38.5238 42.383C38.8869 42.0217 39.3323 41.4425 39.7373 40.973C40.1425 40.5035 40.2759 40.1669 40.5458 39.6309C40.8159 39.0935 40.6809 38.6241 40.4792 38.2209C40.2773 37.8179 38.6605 33.8564 37.9854 32.2457C37.3289 30.6766 36.6617 30.8898 36.1666 30.8635C35.6948 30.8403 35.1564 30.8357 34.6164 30.8357C34.0763 30.8357 33.201 31.0365 32.4593 31.8427C31.7176 32.6487 29.6287 34.5962 29.6287 38.556C29.6287 42.5158 32.5261 46.3445 32.9311 46.8819C33.3361 47.4194 38.6339 55.5474 46.7454 59.0346C48.6744 59.8639 50.1812 60.3597 51.3559 60.7304C53.2927 61.3435 55.0555 61.257 56.449 61.05C58.0025 60.8184 61.2333 59.1026 61.9068 57.223C62.5803 55.3435 62.5803 53.7311 62.3786 53.396C62.1769 53.0609 61.6369 52.8586 60.8284 52.4555L60.8298 52.4525Z" fill="white"/>
</svg>
