<svg width="92" height="92" viewBox="0 0 92 92" fill="none" xmlns="http://www.w3.org/2000/svg">
<rect x="0.438477" y="0.21875" width="91.5618" height="91.5618" rx="20" fill="#FF0000"/>
<path d="M71.6856 33.406C71.0878 31.1585 69.3194 29.3856 67.0693 28.7779C63.0011 27.6875 46.6781 27.6875 46.6781 27.6875C46.6781 27.6875 30.3635 27.6875 26.2869 28.7779C24.0452 29.3772 22.2767 31.1502 21.6707 33.406C20.583 37.4846 20.583 45.9999 20.583 45.9999C20.583 45.9999 20.583 54.5151 21.6707 58.5938C22.2684 60.8412 24.0369 62.6142 26.2869 63.2218C30.3635 64.3122 46.6781 64.3122 46.6781 64.3122C46.6781 64.3122 63.0011 64.3122 67.0693 63.2218C69.311 62.6225 71.0795 60.8495 71.6856 58.5938C72.7732 54.5151 72.7732 45.9999 72.7732 45.9999C72.7732 45.9999 72.7732 37.4846 71.6856 33.406Z" fill="white"/>
<path d="M41.4641 53.8492L55.0223 45.9999L41.4641 38.1505V53.8492Z" fill="#FF0000"/>
</svg>
